# xmcd
#
# Track frame offsets: 
#        150
#        18945
#        31881
#        47195
#        63583
#        79752
#        94157
#        109058
#        132557
#        154269
#        171394
#        188270
#
# Disc length: 2712 seconds
#
# Revision: 1
# Processed by: cddbd v1.5.2PL0 Copyright (c) Steve Scherf et al.
# Submitted via: ExactAudioCopy v0.99pb5
#
DISCID=9a0a960c
DTITLE=Los Fabulocos - Dos
DYEAR=2011
DGENRE=Latin Rock
TTITLE0=Everything Will Turn Out Alright
TTITLE1=The Vibe
TTITLE2=I Never Thought 
TTITLE3=Los Chucos Suaves
TTITLE4=She Wakes Up Cryin' 
TTITLE5=Una Pura Y Dos Con Sal
TTITLE6=What's In My Heart 
TTITLE7=The Coffee Song
TTITLE8=Un Puno De Tierra
TTITLE9=My Brother's Keeper 
TTITLE10=Keep A Knockin' 
TTITLE11=Calmen Su Rollo
EXTD=
EXTT0=
EXTT1=
EXTT2=
EXTT3=
EXTT4=
EXTT5=
EXTT6=
EXTT7=
EXTT8=
EXTT9=
EXTT10=
EXTT11=
PLAYORDER=
